{
  "accessors": [
    {
      "bufferView": 2,
      "componentType": 5126,
      "count": 65532,
      "max": [
        9.487544059753418,
        -12.328277587890625,
        7.7520103454589844
      ],
      "min": [
        -4.293339729309082,
        -45.332267761230469,
        -6.4331932067871094
      ],
      "type": "VEC3"
    },
    {
      "bufferView": 2,
      "byteOffset": 786384,
      "componentType": 5126,
      "count": 65532,
      "max": [
        0.99984991550445557,
        0.99771463871002197,
        0.99993866682052612
      ],
      "min": [
        -0.99999314546585083,
        -0.99999624490737915,
        -1
      ],
      "type": "VEC3"
    },
    {
      "bufferView": 3,
      "componentType": 5126,
      "count": 65532,
      "max": [
        1,
        0.99999946355819702,
        0.9999508261680603,
        1
      ],
      "min": [
        -0.99999982118606567,
        -1,
        -0.9999651312828064,
        -1
      ],
      "type": "VEC4"
    },
    {
      "bufferView": 3,
      "byteOffset": 1048512,
      "componentType": 5126,
      "count": 65532,
      "max": [
        0.64705884456634521,
        0.57647061347961426,
        0.40784314274787903,
        1
      ],
      "min": [
        0.031372550874948502,
        0.011764706112444401,
        0.0039215688593685627,
        1
      ],
      "type": "VEC4"
    },
    {
      "bufferView": 1,
      "componentType": 5126,
      "count": 65532,
      "max": [
        0.99975597858428955,
        0.32788100838661194
      ],
      "min": [
        0.00024399999529123306,
        0.00024399999529123306
      ],
      "type": "VEC2"
    },
    {
      "bufferView": 0,
      "componentType": 5125,
      "count": 285198,
      "max": [
        65531
      ],
      "min": [
        0
      ],
      "type": "SCALAR"
    },
    {
      "bufferView": 2,
      "byteOffset": 1572768,
      "componentType": 5126,
      "count": 65532,
      "max": [
        8.8936014175415039,
        -11.543491363525391,
        7.9479408264160156
      ],
      "min": [
        -4.1450443267822266,
        -29.921075820922852,
        -6.9664115905761719
      ],
      "type": "VEC3"
    },
    {
      "bufferView": 2,
      "byteOffset": 2359152,
      "componentType": 5126,
      "count": 65532,
      "max": [
        0.99972879886627197,
        0.99998247623443604,
        0.9991118311882019
      ],
      "min": [
        -0.99999350309371948,
        -0.99522757530212402,
        -1
      ],
      "type": "VEC3"
    },
    {
      "bufferView": 3,
      "byteOffset": 2097024,
      "componentType": 5126,
      "count": 65532,
      "max": [
        1,
        1,
        0.99984407424926758,
        -1
      ],
      "min": [
        -0.99999988079071045,
        -1,
        -0.99998980760574341,
        -1
      ],
      "type": "VEC4"
    },
    {
      "bufferView": 3,
      "byteOffset": 3145536,
      "componentType": 5126,
      "count": 65532,
      "max": [
        0.83921569585800171,
        0.73725491762161255,
        0.65882354974746704,
        1
      ],
      "min": [
        0.10588235408067703,
        0.074509806931018829,
        0.019607843831181526,
        1
      ],
      "type": "VEC4"
    },
    {
      "bufferView": 1,
      "byteOffset": 524256,
      "componentType": 5126,
      "count": 65532,
      "max": [
        0.99975597858428955,
        0.42757201194763184
      ],
      "min": [
        0.00024399999529123306,
        0.00024399999529123306
      ],
      "type": "VEC2"
    },
    {
      "bufferView": 0,
      "byteOffset": 1140792,
      "componentType": 5125,
      "count": 274650,
      "max": [
        65531
      ],
      "min": [
        0
      ],
      "type": "SCALAR"
    },
    {
      "bufferView": 2,
      "byteOffset": 3145536,
      "componentType": 5126,
      "count": 65532,
      "max": [
        9.5901613235473633,
        -11.495851516723633,
        6.449981689453125
      ],
      "min": [
        -4.480158805847168,
        -28.123577117919922,
        -6.7398557662963867
      ],
      "type": "VEC3"
    },
    {
      "bufferView": 2,
      "byteOffset": 3931920,
      "componentType": 5126,
      "count": 65532,
      "max": [
        0.99981111288070679,
        0.9999968409538269,
        0.99915963411331177
      ],
      "min": [
        -0.99999421834945679,
        -0.99876713752746582,
        -0.99999487400054932
      ],
      "type": "VEC3"
    },
    {
      "bufferView": 3,
      "byteOffset": 4194048,
      "componentType": 5126,
      "count": 65532,
      "max": [
        0.99999994039535522,
        0.99999982118606567,
        0.9981539249420166,
        -1
      ],
      "min": [
        -0.99999988079071045,
        -0.99999994039535522,
        -0.99998259544372559,
        -1
      ],
      "type": "VEC4"
    },
    {
      "bufferView": 3,
      "byteOffset": 5242560,
      "componentType": 5126,
      "count": 65532,
      "max": [
        0.66274511814117432,
        0.61568629741668701,
        0.47058823704719543,
        1
      ],
      "min": [
        0.058823529630899429,
        0.039215687662363052,
        0.015686275437474251,
        1
      ],
      "type": "VEC4"
    },
    {
      "bufferView": 1,
      "byteOffset": 1048512,
      "componentType": 5126,
      "count": 65532,
      "max": [
        0.99975597858428955,
        0.43432599306106567
      ],
      "min": [
        0.00024399999529123306,
        0.00024399999529123306
      ],
      "type": "VEC2"
    },
    {
      "bufferView": 0,
      "byteOffset": 2239392,
      "componentType": 5125,
      "count": 226047,
      "max": [
        65531
      ],
      "min": [
        0
      ],
      "type": "SCALAR"
    },
    {
      "bufferView": 2,
      "byteOffset": 4718304,
      "componentType": 5126,
      "count": 65534,
      "max": [
        9.2363767623901367,
        -11.911611557006836,
        9.1402759552001953
      ],
      "min": [
        -6.3126039505004883,
        -37.870521545410156,
        -6.3024072647094727
      ],
      "type": "VEC3"
    },
    {
      "bufferView": 2,
      "byteOffset": 5504712,
      "componentType": 5126,
      "count": 65534,
      "max": [
        0.99962669610977173,
        0.99992644786834717,
        0.9999995231628418
      ],
      "min": [
        -0.99999421834945679,
        -0.9981885552406311,
        -0.99997532367706299
      ],
      "type": "VEC3"
    },
    {
      "bufferView": 3,
      "byteOffset": 6291072,
      "componentType": 5126,
      "count": 65534,
      "max": [
        1,
        0.99999511241912842,
        0.99999970197677612,
        1
      ],
      "min": [
        -1,
        -1,
        -0.99964416027069092,
        -1
      ],
      "type": "VEC4"
    },
    {
      "bufferView": 3,
      "byteOffset": 7339616,
      "componentType": 5126,
      "count": 65534,
      "max": [
        0.75686275959014893,
        0.73333334922790527,
        0.65490198135375977,
        1
      ],
      "min": [
        0.047058824449777603,
        0.027450980618596077,
        0.0078431377187371254,
        1
      ],
      "type": "VEC4"
    },
    {
      "bufferView": 1,
      "byteOffset": 1572768,
      "componentType": 5126,
      "count": 65534,
      "max": [
        0.99975597858428955,
        0.408486008644104
      ],
      "min": [
        0.00024399999529123306,
        0.00024399999529123306
      ],
      "type": "VEC2"
    },
    {
      "bufferView": 0,
      "byteOffset": 3143580,
      "componentType": 5125,
      "count": 264465,
      "max": [
        65533
      ],
      "min": [
        0
      ],
      "type": "SCALAR"
    },
    {
      "bufferView": 2,
      "byteOffset": 6291120,
      "componentType": 5126,
      "count": 65532,
      "max": [
        8.4981145858764648,
        -11.915754318237305,
        9.1402759552001953
      ],
      "min": [
        -4.556941032409668,
        -37.914329528808594,
        -7.7992606163024902
      ],
      "type": "VEC3"
    },
    {
      "bufferView": 2,
      "byteOffset": 7077504,
      "componentType": 5126,
      "count": 65532,
      "max": [
        0.99685287475585938,
        0.99997639656066895,
        0.99994093179702759
      ],
      "min": [
        -0.99999839067459106,
        -0.99903523921966553,
        -0.9999927282333374
      ],
      "type": "VEC3"
    },
    {
      "bufferView": 3,
      "byteOffset": 8388160,
      "componentType": 5126,
      "count": 65532,
      "max": [
        0.99999994039535522,
        0.99999934434890747,
        0.99890011548995972,
        -1
      ],
      "min": [
        -0.99999994039535522,
        -1,
        -0.99984031915664673,
        -1
      ],
      "type": "VEC4"
    },
    {
      "bufferView": 3,
      "byteOffset": 9436672,
      "componentType": 5126,
      "count": 65532,
      "max": [
        0.61960786581039429,
        0.62745100259780884,
        0.52549022436141968,
        1
      ],
      "min": [
        0.047058824449777603,
        0.027450980618596077,
        0,
        1
      ],
      "type": "VEC4"
    },
    {
      "bufferView": 1,
      "byteOffset": 2097040,
      "componentType": 5126,
      "count": 65532,
      "max": [
        0.99975597858428955,
        0.34687599539756775
      ],
      "min": [
        0.00024399999529123306,
        0.00024399999529123306
      ],
      "type": "VEC2"
    },
    {
      "bufferView": 0,
      "byteOffset": 4201440,
      "componentType": 5125,
      "count": 260589,
      "max": [
        65531
      ],
      "min": [
        0
      ],
      "type": "SCALAR"
    },
    {
      "bufferView": 2,
      "byteOffset": 7863888,
      "componentType": 5126,
      "count": 54814,
      "max": [
        9.5901613235473633,
        -12.124752044677734,
        9.1402759552001953
      ],
      "min": [
        -3.4080667495727539,
        -43.924961090087891,
        -7.7992606163024902
      ],
      "type": "VEC3"
    },
    {
      "bufferView": 2,
      "byteOffset": 8521656,
      "componentType": 5126,
      "count": 54814,
      "max": [
        0.99974679946899414,
        0.99999910593032837,
        0.99952995777130127
      ],
      "min": [
        -0.99998229742050171,
        -0.99840056896209717,
        -0.99999856948852539
      ],
      "type": "VEC3"
    },
    {
      "bufferView": 3,
      "byteOffset": 10485184,
      "componentType": 5126,
      "count": 54814,
      "max": [
        1,
        0.99999982118606567,
        0.99995231628417969,
        1
      ],
      "min": [
        -0.99999922513961792,
        -0.99999994039535522,
        -0.99998456239700317,
        -1
      ],
      "type": "VEC4"
    },
    {
      "bufferView": 3,
      "byteOffset": 11362208,
      "componentType": 5126,
      "count": 54814,
      "max": [
        0.61176472902297974,
        0.54509806632995605,
        0.42352941632270813,
        1
      ],
      "min": [
        0.031372550874948502,
        0.015686275437474251,
        0.0039215688593685627,
        1
      ],
      "type": "VEC4"
    },
    {
      "bufferView": 1,
      "byteOffset": 2621296,
      "componentType": 5126,
      "count": 54814,
      "max": [
        0.99975597858428955,
        0.39046499133110046
      ],
      "min": [
        0.00024399999529123306,
        0.00024399999529123306
      ],
      "type": "VEC2"
    },
    {
      "bufferView": 0,
      "byteOffset": 5243796,
      "componentType": 5125,
      "count": 191469,
      "max": [
        54813
      ],
      "min": [
        0
      ],
      "type": "SCALAR"
    }
  ],
  "asset": {
    "extras": {
      "author": "Geoffrey Marchal (https://sketchfab.com/geoffreymarchal)",
      "license": "CC-BY-NC-4.0 (http://creativecommons.org/licenses/by-nc/4.0/)",
      "source": "https://sketchfab.com/models/05a6b459d7d44a3e8d1e3696b2d377e6",
      "title": "Chemise from Egypt"
    },
    "generator": "Sketchfab-3.43.5",
    "version": "2.0"
  },
  "bufferViews": [
    {
      "buffer": 0,
      "byteLength": 6009672,
      "byteOffset": 0,
      "name": "floatBufferViews",
      "target": 34963
    },
    {
      "buffer": 0,
      "byteLength": 3059808,
      "byteOffset": 6009672,
      "byteStride": 8,
      "name": "floatBufferViews",
      "target": 34962
    },
    {
      "buffer": 0,
      "byteLength": 9179424,
      "byteOffset": 9069480,
      "byteStride": 12,
      "name": "floatBufferViews",
      "target": 34962
    },
    {
      "buffer": 0,
      "byteLength": 12239232,
      "byteOffset": 18248904,
      "byteStride": 16,
      "name": "floatBufferViews",
      "target": 34962
    }
  ],
  "buffers": [
    {
      "byteLength": 30488136,
      "uri": "scene.bin"
    }
  ],
  "images": [
    {
      "uri": "chemise_egypte_-_CleanUp_-_LowPoly_Material_u1_v1_baseColor.jpeg"
    }
  ],
  "materials": [
    {
      "doubleSided": true,
      "name": "chemise_egypte_-_CleanUp_-_LowPoly_Material_u1_v1",
      "pbrMetallicRoughness": {
        "baseColorFactor": [
          1,
          1,
          1,
          1
        ],
        "baseColorTexture": {
          "index": 0,
          "texCoord": 0
        },
        "metallicFactor": 0,
        "roughnessFactor": 1
      }
    }
  ],
  "meshes": [
    {
      "primitives": [
        {
          "attributes": {
            "COLOR_0": 3,
            "NORMAL": 1,
            "POSITION": 0,
            "TANGENT": 2,
            "TEXCOORD_0": 4
          },
          "indices": 5,
          "material": 0,
          "mode": 4
        }
      ]
    },
    {
      "primitives": [
        {
          "attributes": {
            "COLOR_0": 9,
            "NORMAL": 7,
            "POSITION": 6,
            "TANGENT": 8,
            "TEXCOORD_0": 10
          },
          "indices": 11,
          "material": 0,
          "mode": 4
        }
      ]
    },
    {
      "primitives": [
        {
          "attributes": {
            "COLOR_0": 15,
            "NORMAL": 13,
            "POSITION": 12,
            "TANGENT": 14,
            "TEXCOORD_0": 16
          },
          "indices": 17,
          "material": 0,
          "mode": 4
        }
      ]
    },
    {
      "primitives": [
        {
          "attributes": {
            "COLOR_0": 21,
            "NORMAL": 19,
            "POSITION": 18,
            "TANGENT": 20,
            "TEXCOORD_0": 22
          },
          "indices": 23,
          "material": 0,
          "mode": 4
        }
      ]
    },
    {
      "primitives": [
        {
          "attributes": {
            "COLOR_0": 27,
            "NORMAL": 25,
            "POSITION": 24,
            "TANGENT": 26,
            "TEXCOORD_0": 28
          },
          "indices": 29,
          "material": 0,
          "mode": 4
        }
      ]
    },
    {
      "primitives": [
        {
          "attributes": {
            "COLOR_0": 33,
            "NORMAL": 31,
            "POSITION": 30,
            "TANGENT": 32,
            "TEXCOORD_0": 34
          },
          "indices": 35,
          "material": 0,
          "mode": 4
        }
      ]
    }
  ],
  "nodes": [
    {
      "children": [
        1
      ],
      "name": "RootNode (gltf orientation matrix)",
      "rotation": [
        -0.70710678118654746,
        -0,
        -0,
        0.70710678118654757
      ]
    },
    {
      "children": [
        2
      ],
      "matrix": [
        0.58680999279022217,
        0.80972468852996826,
        0,
        0,
        0,
        0,
        -1,
        0,
        -0.80972468852996826,
        0.58680999279022217,
        0,
        0,
        1.220039963722229,
        -30.134450912475586,
        -27.743549346923828,
        1
      ],
      "name": "RootNode (model correction matrix)"
    },
    {
      "children": [
        3,
        4,
        5,
        6,
        7,
        8
      ],
      "name": "chemise_egypte_-_CleanUp_-_LowPoly.obj.cleaner.materialmerger.gles"
    },
    {
      "mesh": 0,
      "name": ""
    },
    {
      "mesh": 1,
      "name": ""
    },
    {
      "mesh": 2,
      "name": ""
    },
    {
      "mesh": 3,
      "name": ""
    },
    {
      "mesh": 4,
      "name": ""
    },
    {
      "mesh": 5,
      "name": ""
    }
  ],
  "samplers": [
    {
      "magFilter": 9729,
      "minFilter": 9987,
      "wrapS": 10497,
      "wrapT": 10497
    }
  ],
  "scene": 0,
  "scenes": [
    {
      "name": "OSG_Scene",
      "nodes": [
        0
      ]
    }
  ],
  "textures": [
    {
      "sampler": 0,
      "source": 0
    }
  ]
}

